<svg width="210" height="42" viewBox="0 0 210 42" fill="none" xmlns="http://www.w3.org/2000/svg">
<path d="M72.2316 6.94681V20.8474L60.1942 27.8011L48.1567 34.7549L36.1193 41.7086L24.0818 34.7549V20.8543L36.1193 27.8081L48.1567 20.8543L60.1942 13.9006L72.2316 6.94681ZM24.0749 6.95375L12.0375 13.9075L0 6.95375V20.8543L12.0375 27.8081L24.0749 20.8543L36.1193 13.9006V0L24.0749 6.95375Z" fill="#C82437"/>
<path d="M87.6217 15.0367H90.0805L94.0837 20.7991L94.1045 20.8269H97.1381L92.2275 13.6792L96.965 6.96094H94.1045L90.1567 12.7165H87.6217V6.96094H84.9829V20.8269H87.6217V15.0367Z" fill="black"/>
<path d="M100.795 20.1062C101.924 20.7157 103.213 21.0274 104.612 21.0274C106.018 21.0274 107.299 20.7157 108.428 20.1062C109.557 19.4967 110.457 18.6379 111.101 17.5575C111.746 16.477 112.071 15.2442 112.071 13.8936C112.071 12.543 111.746 11.3102 111.101 10.2297C110.457 9.14926 109.557 8.29734 108.428 7.68092C107.299 7.07143 106.011 6.75977 104.612 6.75977C103.206 6.75977 101.924 7.07143 100.795 7.68092C99.6665 8.29041 98.7661 9.14924 98.122 10.2366C97.4779 11.324 97.1523 12.5499 97.1523 13.8936C97.1523 15.2303 97.4779 16.4631 98.122 17.5505C98.7661 18.631 99.6665 19.4898 100.795 20.1062ZM102.174 9.73795C102.894 9.33624 103.718 9.12848 104.619 9.12848C105.519 9.12848 106.343 9.33624 107.064 9.73795C107.784 10.1397 108.359 10.7145 108.767 11.4418C109.176 12.169 109.384 12.9932 109.384 13.8936C109.384 14.794 109.176 15.6182 108.767 16.3454C108.359 17.0726 107.784 17.6475 107.064 18.0492C106.343 18.4509 105.519 18.6587 104.619 18.6587C103.718 18.6587 102.894 18.4509 102.174 18.0492C101.453 17.6475 100.879 17.0726 100.47 16.3454C100.061 15.6182 99.8535 14.794 99.8535 13.8936C99.8535 12.9932 100.061 12.169 100.47 11.4418C100.879 10.7145 101.453 10.1466 102.174 9.73795Z" fill="black"/>
<path d="M116.988 14.9397H123.97V20.8269H126.643V6.96094H123.97V12.6334H116.988V6.96094H114.308V20.8269H116.988V14.9397Z" fill="black"/>
<path d="M139.99 6.96094H128.25V9.24652H132.78V20.8269H135.44V9.24652H139.99V6.96094Z" fill="black"/>
<path d="M144.27 14.8982H150.905V12.6749H144.27V9.22574H151.75V6.96094H141.597V20.8269H152.027V18.5621H144.27V14.8982Z" fill="black"/>
<path d="M156.931 16.5951V6.96094H154.299V20.8269H156.764L164.051 11.2135V20.8269H166.689V6.96094H164.224L156.931 16.5951Z" fill="black"/>
<path d="M179.6 12.6334H172.618V6.96094H169.938V20.8269H172.618V14.9397H179.6V20.8269H182.273V6.96094H179.6V12.6334Z" fill="black"/>
<path d="M188.202 14.8982H194.837V12.6749H188.202V9.22574H195.682V6.96094H185.529V20.8269H195.959V18.5621H188.202V14.8982Z" fill="black"/>
<path d="M209.119 9.2673C208.641 8.52621 207.948 7.95135 207.062 7.55657C206.175 7.16178 205.116 6.96094 203.924 6.96094H198.21V20.8269H200.884V16.8652H203.924C205.116 16.8652 206.175 16.6643 207.062 16.2695C207.955 15.8748 208.648 15.2929 209.119 14.5449C209.597 13.7969 209.832 12.9104 209.832 11.9131C209.832 10.8949 209.597 10.0084 209.119 9.2673ZM200.884 9.24652H203.807C204.901 9.24652 205.739 9.48201 206.3 9.93913C206.861 10.3962 207.138 11.0611 207.138 11.9131C207.138 12.765 206.854 13.4299 206.3 13.887C205.739 14.3441 204.901 14.5796 203.807 14.5796H200.884V9.24652Z" fill="black"/>
<path d="M85.0039 41.7019H87.6427L87.6219 30.1215H94.4302L94.451 27.8359H85.0039V41.7019Z" fill="black"/>
<path d="M104.847 28.4316C103.961 28.0368 102.901 27.8359 101.71 27.8359H95.9956V41.7019H98.676V37.7402H101.717C102.908 37.7402 103.967 37.5393 104.854 37.1445C105.747 36.7498 106.44 36.168 106.911 35.42C107.389 34.6719 107.624 33.7854 107.624 32.7881C107.624 31.7699 107.382 30.8834 106.911 30.1423C106.433 29.4012 105.741 28.8264 104.847 28.4316ZM98.676 30.1215H101.599C102.693 30.1215 103.531 30.357 104.092 30.8141C104.653 31.2713 104.93 31.9361 104.93 32.7881C104.93 33.64 104.646 34.3049 104.092 34.762C103.531 35.2191 102.693 35.4546 101.599 35.4546H98.676V30.1215Z" fill="black"/>
<path d="M114.315 35.8286L110.291 27.8359H107.417L112.923 38.1419L112.729 38.4466C112.209 39.2708 111.537 39.6933 110.741 39.6933C110.395 39.6933 109.951 39.6102 109.425 39.444L109.363 39.4232L108.698 41.5426L108.746 41.5633C109.418 41.8542 110.104 41.9997 110.789 41.9997C111.648 41.9997 112.459 41.7503 113.193 41.2517C113.927 40.7599 114.564 40.005 115.091 39.0215L121.109 27.8359H118.457L114.315 35.8286Z" fill="black"/>
<path d="M122.259 41.7019H124.898V30.1215H131.9V41.7019H134.539V27.8359H122.259V41.7019Z" fill="black"/>
<path d="M137.829 41.7019H140.46V30.1215H147.463V41.7019H150.102V27.8359H137.829V41.7019Z" fill="black"/>
<path d="M157.647 3.32571L157.647 5.2373L163.506 5.2373L163.506 3.32571L157.647 3.32571Z" fill="black"/>
<path d="M12.0376 13.9075V27.8081L36.1194 13.9075V0L12.0376 13.9075Z" fill="#7C1620"/>
<path d="M36.1187 27.8016V41.709L72.231 20.8548V6.94727L36.1187 27.8016Z" fill="#7C1620"/>
</svg>
