<svg width="20" height="20" viewBox="0 0 20 20" fill="none" xmlns="http://www.w3.org/2000/svg">
<path d="M7.26314 0.270267C3.76245 1.31835 1.13694 4.00894 0.246142 7.4504C-0.0820473 8.70184 -0.0820473 11.2986 0.246142 12.55C1.15257 16.0697 4.05939 18.9637 7.52881 19.7771C8.79469 20.0743 11.2014 20.0743 12.4829 19.7771C15.0772 19.167 17.6245 17.1647 18.8592 14.7713C19.7187 13.0975 20 11.9399 20 10.0002C20 8.07612 19.7187 6.9029 18.8904 5.29167C17.7339 3.07036 15.7492 1.33399 13.3893 0.489269C11.889 -0.0582352 8.73217 -0.167736 7.26314 0.270267ZM14.7959 6.33975C14.874 6.5744 13.3893 13.9735 13.1237 14.6462C13.0455 14.8495 12.858 15.006 12.733 15.006C12.5923 15.006 11.9203 14.5836 11.2483 14.0674C10.5763 13.5512 9.95116 13.1288 9.88865 13.1288C9.81051 13.1288 9.46669 13.4104 9.1385 13.7545C8.81032 14.0987 8.4665 14.3803 8.40399 14.3803C8.26333 14.3803 8.2477 13.4417 8.37273 12.6282C8.4665 12.1277 8.77906 11.7679 10.7638 9.98457C12.0141 8.84263 13.0768 7.85712 13.0924 7.77891C13.2643 7.37219 12.2797 7.85712 9.76363 9.45271L6.91932 11.236L5.65345 10.8449C4.48134 10.4851 4.05939 10.2505 4.26255 10.0471C4.38758 9.922 14.2645 6.10511 14.4989 6.10511C14.6083 6.08946 14.7333 6.19896 14.7959 6.33975Z" fill="#C82437"/>
</svg>
