<svg width="20" height="20" viewBox="0 0 20 20" fill="none" xmlns="http://www.w3.org/2000/svg">
<path d="M7.45117 0.190874C4.08922 1.03698 1.11819 4.01403 0.24252 7.41413C-0.0702199 8.63629 -0.0858569 11.1433 0.226883 12.4751C1.04001 15.9066 4.08922 18.962 7.51372 19.7767C8.79595 20.0744 11.204 20.0744 12.4863 19.7767C15.9108 18.962 18.96 15.9066 19.7731 12.4751C20.0859 11.1433 20.0702 8.63629 19.7575 7.41413C19.1633 5.14218 17.5839 2.90156 15.6137 1.58539C13.8623 0.425905 12.6427 0.0498562 10.3127 0.00285149C8.9836 -0.0128174 8.06101 0.0341873 7.45117 0.190874ZM12.1892 5.59657C13.1587 6.09797 14.1594 7.19477 14.5191 8.19757C15.9108 11.911 12.4394 15.7185 8.65522 14.6061C7.77955 14.3554 7.67009 14.3554 6.51295 14.6217C5.8562 14.7627 5.27763 14.8568 5.23072 14.8098C5.18381 14.7627 5.26199 14.183 5.40273 13.5093C5.63728 12.3811 5.63728 12.2244 5.40273 11.5037C4.46451 8.62062 6.30967 5.59657 9.24942 5.15785C10.2971 5.00116 11.3291 5.15785 12.1892 5.59657Z" fill="#C82437"/>
<path d="M9.21796 6.08235C6.85677 6.53674 5.54326 8.94971 6.30948 11.4254C6.52839 12.0834 6.54403 12.4125 6.41893 12.9609C6.34075 13.3369 6.2782 13.666 6.29384 13.6817C6.30948 13.6973 6.66913 13.6346 7.07569 13.5406C7.70117 13.3996 7.95136 13.4153 8.60811 13.666C10.1718 14.2144 11.9388 13.7443 13.0334 12.4595C13.6901 11.7074 13.9091 11.0336 13.9091 9.81149C13.9091 7.39852 11.673 5.62796 9.21796 6.08235ZM8.81139 8.26029C9.01467 8.76169 9.03031 8.94971 8.87394 9.18474C8.60811 9.62347 8.90522 10.1719 9.7027 10.7673C10.422 11.2843 10.7973 11.347 11.0788 11.018C11.3446 10.7046 12.5017 11.018 12.5017 11.394C12.5017 11.7387 12.0639 12.1305 11.5322 12.2558C10.6409 12.4752 8.52993 11.0493 7.85754 9.78015C7.5448 9.16908 7.56043 8.558 7.88881 8.0566C8.2641 7.47686 8.51429 7.52387 8.81139 8.26029Z" fill="#C82437"/>
</svg>
